<svg xmlns="http://www.w3.org/2000/svg" width="100%" height="100%" viewBox="0 0 40 40"><circle cx="20" cy="20" r="20" fill="black"/><path d="M21.071 24.6327H9V7h12.071c4.1437 0 7.5012 3.3576 7.5012 7.4988v2.6326c0 4.1437-3.3575 7.5013-7.5012 7.5013Z" fill="#AEDB01"/><path d="M24.1812 33.4491H9v-8.8164c0-4.8685 3.9478-8.8163 8.8188-8.8163h6.3624c4.871 0 8.8188 3.9478 8.8188 8.8163 0 4.8686-3.9478 8.8164-8.8188 8.8164Z" fill="#B0B1AC"/><path d="M28.5722 16.987v.147c0 4.1436-3.3575 7.4987-7.5036 7.4987H9c0-2.4343.98939-4.6383 2.5812-6.2351 1.5968-1.5967 3.8008-2.5812 6.24-2.5812h6.36c1.5992.0025 3.098.4286 4.391 1.1706Z" fill="#5D6D3C"/></svg>
