<svg enable-background="new 0 0 512 512" height="100%" viewBox="0 0 512 512" width="100%" xmlns="http://www.w3.org/2000/svg"><g id="United_states_x2C__Country_x2C__flag_x2C_"><g clip-rule="evenodd" fill-rule="evenodd"><path d="m43 209.473h426v18.673h-426z" fill="#db1f26"/><path d="m43 172.33h426v18.572h-426z" fill="#db1f26"/><path d="m43 135.088h426v18.672h-426z" fill="#db1f26"/><path d="m43 246.717h426v18.673h-426z" fill="#db1f26"/><path d="m43 283.963h426v18.675h-426z" fill="#db1f26"/><path d="m43 321.205h426v18.57h-426z" fill="#db1f26"/><path d="m43 358.342h426v18.569h-426z" fill="#db1f26"/><path d="m43 190.902h426v18.675h-426z" fill="#fff"/><path d="m43 153.761h426v18.569h-426z" fill="#fff"/><path d="m43 228.146h426v18.675h-426z" fill="#fff"/><path d="m43 265.285h426v18.678h-426z" fill="#fff"/><path d="m43 302.529h426v18.676h-426z" fill="#fff"/><path d="m43 339.775h426v18.675h-426z" fill="#fff"/><path d="m43 135.088h159.272v113.203h-159.272z" fill="#2f4ea1"/><g fill="#fff"><path d="m176.098 158.06 1.698 4.411-4.027-2.729v-.105.105l-4.029 2.729 1.695-4.411h.108-.108l-4.132-2.62h4.981l1.377-4.3 1.59 4.3h5.086z"/><path d="m176.098 180.833 1.698 4.401-4.027-2.725v-.105.105l-4.029 2.725 1.695-4.401h.108-.108l-4.132-2.625h4.981l1.377-4.409 1.59 4.409h5.086z"/><path d="m176.098 203.596 1.698 4.406-4.027-2.831-4.029 2.831 1.695-4.406h.108-.108l-4.132-2.625h4.981l1.377-4.402 1.59 4.402h5.086z"/><path d="m176.098 226.362 1.698 4.3-4.027-2.727-4.029 2.727 1.695-4.3h.108-.108l-4.132-2.619h4.981l1.377-4.411 1.59 4.411h5.086z"/><path d="m149.817 158.06 1.695 4.411-4.026-2.729v-.105l-.106.105-3.921 2.729 1.59-4.411h.105l-4.239-2.62h5.089l1.376-4.3 1.486 4.3h5.085l-4.239 2.62z"/><path d="m149.817 180.833 1.695 4.401-4.026-2.725v-.105l-.106.105-3.921 2.725 1.59-4.401h.105l-4.239-2.625h5.089l1.376-4.409 1.486 4.409h5.085l-4.239 2.625z"/><path d="m149.817 203.596 1.695 4.406-4.026-2.831h-.106l-3.921 2.831 1.59-4.406h.105l-4.239-2.625h5.089l1.376-4.402 1.486 4.402h5.085l-4.239 2.625z"/><path d="m149.817 226.362 1.695 4.3-4.026-2.727h-.106l-3.921 2.727 1.59-4.3h.105l-4.239-2.619h5.089l1.376-4.411 1.486 4.411h5.085l-4.239 2.619z"/><path d="m123.432 158.06 1.695 4.411-4.026-2.729v-.105.105l-4.028 2.729 1.696-4.411-4.132-2.62h4.981l1.374-4.3 1.486 4.3h.105 4.98z"/><path d="m123.432 180.833 1.695 4.401-4.026-2.725v-.105.105l-4.028 2.725 1.696-4.401-4.132-2.625h4.981l1.374-4.409 1.486 4.409h.105 4.98z"/><path d="m123.432 203.596 1.695 4.406-4.026-2.831-4.028 2.831 1.696-4.406-4.132-2.625h4.981l1.374-4.402 1.486 4.402h.105 4.98z"/><path d="m123.432 226.362 1.695 4.3-4.026-2.727-4.028 2.727 1.696-4.3-4.132-2.619h4.981l1.374-4.411 1.486 4.411h.105 4.98z"/><path d="m97.574 158.06 1.592 4.411-3.923-2.729v-.105.105l-4.131 2.729 1.695-4.411h.104-.104l-4.135-2.62h5.089l1.272-4.3 1.586 4.3h5.086l-4.235 2.62z"/><path d="m97.574 180.833 1.592 4.401-3.923-2.725v-.105.105l-4.131 2.725 1.695-4.401h.104-.104l-4.135-2.625h5.089l1.272-4.409 1.586 4.409h5.086l-4.235 2.625z"/><path d="m97.574 203.596 1.592 4.406-3.923-2.831-4.131 2.831 1.695-4.406h.104-.104l-4.135-2.625h5.089l1.272-4.402 1.586 4.402h5.086l-4.235 2.625z"/><path d="m97.574 226.362 1.592 4.3-3.923-2.727-4.131 2.727 1.695-4.3h.104-.104l-4.135-2.619h5.089l1.272-4.411 1.586 4.411h5.086l-4.235 2.619z"/><path d="m71.612 158.06 1.696 4.411-4.028-2.729v-.105.105l-4.027 2.729 1.696-4.411-4.135-2.62h4.981l1.381-4.3 1.482 4.3h5.089l-4.135 2.62h-.106z"/><path d="m71.612 180.833 1.696 4.401-4.028-2.725v-.105.105l-4.027 2.725 1.696-4.401-4.135-2.625h4.981l1.381-4.409 1.482 4.409h5.089l-4.135 2.625h-.106z"/><path d="m71.612 203.596 1.696 4.406-4.028-2.831-4.027 2.831 1.696-4.406-4.135-2.625h4.981l1.381-4.402 1.482 4.402h5.089l-4.135 2.625h-.106z"/><path d="m71.612 226.362 1.696 4.3-4.028-2.727-4.027 2.727 1.696-4.3-4.135-2.619h4.981l1.381-4.411 1.482 4.411h5.089l-4.135 2.619h-.106z"/><path d="m188.921 169.498 1.695 4.301-4.026-2.725-4.027 2.725 1.696-4.301v-.101l-4.136-2.522h4.981l1.381-4.404 1.481 4.404h5.09l-4.135 2.522z"/><path d="m188.921 192.265 1.695 4.304-4.026-2.73-4.027 2.73 1.696-4.304v-.105l-4.136-2.517h4.981l1.381-4.409 1.481 4.409h5.09l-4.135 2.517z"/><path d="m188.921 214.927 1.695 4.405-4.026-2.725-4.027 2.725 1.696-4.405-4.136-2.519h4.981l1.381-4.406 1.481 4.406h5.09z"/><path d="m188.921 237.797 1.695 4.302-4.026-2.728-4.027 2.728 1.696-4.302v-.103l-4.136-2.52h4.981l1.381-4.404 1.481 4.404h5.09l-4.135 2.52z"/><path d="m188.921 146.838 1.695 4.302-4.026-2.728-4.027 2.728 1.696-4.302v-.103l-4.136-2.522h4.981l1.381-4.404 1.481 4.404h5.09l-4.135 2.522z"/><path d="m163.171 169.498 1.692 4.301-4.026-2.725-4.026 2.725 1.698-4.301v-.101l-4.134-2.522h4.98l1.377-4.404 1.485 4.404h5.086l-4.132 2.522z"/><path d="m163.171 192.265 1.692 4.304-4.026-2.73-4.026 2.73 1.698-4.304v-.105l-4.134-2.517h4.98l1.377-4.409 1.485 4.409h5.086l-4.132 2.517z"/><path d="m163.171 214.927 1.692 4.405-4.026-2.725-4.026 2.725 1.698-4.405-4.134-2.519h4.98l1.377-4.406 1.485 4.406h5.086z"/><path d="m163.171 237.797 1.692 4.302-4.026-2.728-4.026 2.728 1.698-4.302v-.103l-4.134-2.52h4.98l1.377-4.404 1.485 4.404h5.086l-4.132 2.52z"/><path d="m163.171 146.838 1.692 4.302-4.026-2.728-4.026 2.728 1.698-4.302v-.103l-4.134-2.522h4.98l1.377-4.404 1.485 4.404h5.086l-4.132 2.522z"/><path d="m136.36 169.498 1.696 4.301-4.027-2.725-4.027 2.725 1.696-4.301v-.101l-4.135-2.522h4.981l1.381-4.404 1.481 4.404h.106 4.979l-4.131 2.522z"/><path d="m136.36 192.265 1.696 4.304-4.027-2.73-4.027 2.73 1.696-4.304v-.105l-4.135-2.517h4.981l1.381-4.409 1.481 4.409h.106 4.979l-4.131 2.517z"/><path d="m136.36 214.927 1.696 4.405-4.027-2.725-4.027 2.725 1.696-4.405-4.135-2.519h4.981l1.381-4.406 1.481 4.406h.106 4.979z"/><path d="m136.36 237.797 1.696 4.302-4.027-2.728-4.027 2.728 1.696-4.302v-.103l-4.135-2.52h4.981l1.381-4.404 1.481 4.404h.106 4.979l-4.131 2.52z"/><path d="m136.36 146.838 1.696 4.302-4.027-2.728-4.027 2.728 1.696-4.302v-.103l-4.135-2.522h4.981l1.381-4.404 1.481 4.404h.106 4.979l-4.131 2.522z"/><path d="m110.185 169.498 1.694 4.301-4.025-2.725-4.027 2.725 1.694-4.301v-.101l-4.13-2.522h4.977l1.272-4.404 1.59 4.404h5.089l-4.239 2.522z"/><path d="m110.185 192.265 1.694 4.304-4.025-2.73-4.027 2.73 1.694-4.304v-.105l-4.13-2.517h4.977l1.272-4.409 1.59 4.409h5.089l-4.239 2.517z"/><path d="m110.185 214.927 1.694 4.405-4.025-2.725-4.027 2.725 1.694-4.405-4.13-2.519h4.977l1.272-4.406 1.59 4.406h5.089l-4.239 2.519z"/><path d="m110.185 237.797 1.694 4.302-4.025-2.728-4.027 2.728 1.694-4.302v-.103l-4.13-2.52h4.977l1.272-4.404 1.59 4.404h5.089l-4.239 2.52z"/><path d="m110.185 146.838 1.694 4.302-4.025-2.728-4.027 2.728 1.694-4.302v-.103l-4.13-2.522h4.977l1.272-4.404 1.59 4.404h5.089l-4.239 2.522z"/><path d="m84.541 169.498 1.695 4.301-4.027-2.725h-.107l-3.918 2.725 1.588-4.301.106-.101-4.131-2.522h4.872l1.483-4.404 1.485 4.404h5.085l-4.131 2.522h-.105z"/><path d="m84.541 192.265 1.695 4.304-4.027-2.73h-.107l-3.918 2.73 1.588-4.304.106-.105-4.131-2.517h4.872l1.483-4.409 1.485 4.409h5.085l-4.131 2.517h-.105z"/><path d="m84.541 214.927 1.695 4.405-4.027-2.725h-.107l-3.918 2.725 1.588-4.405h.106l-4.131-2.519h4.872l1.483-4.406 1.485 4.406h5.085l-4.131 2.519h-.105z"/><path d="m84.541 237.797 1.695 4.302-4.027-2.728h-.107l-3.918 2.728 1.588-4.302.106-.103-4.131-2.52h4.872l1.483-4.404 1.485 4.404h5.085l-4.131 2.52h-.105z"/><path d="m84.541 146.838 1.695 4.302-4.027-2.728h-.107l-3.918 2.728 1.588-4.302.106-.103-4.131-2.522h4.872l1.483-4.404 1.485 4.404h5.085l-4.131 2.522h-.105z"/><path d="m58.47 169.498 1.699 4.301-4.026-2.725h-.11l-4.025 2.725 1.694-4.301.105-.101-4.235-2.522h4.981l1.376-4.404 1.591 4.404h5.084l-4.24 2.522z"/><path d="m58.47 192.265 1.699 4.304-4.026-2.73h-.11l-4.025 2.73 1.694-4.304.105-.105-4.235-2.517h4.981l1.376-4.409 1.591 4.409h5.084l-4.24 2.517z"/><path d="m58.47 214.927 1.699 4.405-4.026-2.725h-.11l-4.025 2.725 1.694-4.405h.105l-4.235-2.519h4.981l1.376-4.406 1.591 4.406h5.084l-4.24 2.519z"/><path d="m58.47 237.797 1.699 4.302-4.026-2.728h-.11l-4.025 2.728 1.694-4.302.105-.103-4.235-2.52h4.981l1.376-4.404 1.591 4.404h5.084l-4.24 2.52z"/><path d="m58.47 146.838 1.699 4.302-4.026-2.728h-.11l-4.025 2.728 1.694-4.302.105-.103-4.235-2.522h4.981l1.376-4.404 1.591 4.404h5.084l-4.24 2.522z"/></g></g></g><g id="Layer_1"/></svg>