<svg width="100%" height="100%" viewBox="0 0 16 16" fill="none" xmlns="http://www.w3.org/2000/svg">
<path fill-rule="evenodd" clip-rule="evenodd" d="M3.44097 2H12.559C12.9105 1.99999 13.2137 1.99998 13.4633 2.02038C13.7269 2.04191 13.9891 2.08946 14.2413 2.21799C14.6177 2.40973 14.9236 2.71569 15.1153 3.09202C15.2439 3.34427 15.2914 3.60642 15.3129 3.86998C15.3333 4.11969 15.3333 4.42287 15.3333 4.77429V5.89238C15.3333 6.24381 15.3333 6.54697 15.3129 6.79667C15.2914 7.06027 15.2439 7.3224 15.1153 7.57467C15.0365 7.72933 14.9384 7.87213 14.8241 8C14.9384 8.12787 15.0365 8.27067 15.1153 8.42533C15.2439 8.6776 15.2914 8.93973 15.3129 9.20333C15.3333 9.453 15.3333 9.7562 15.3333 10.1076V11.2257C15.3333 11.5771 15.3333 11.8803 15.3129 12.13C15.2914 12.3936 15.2439 12.6557 15.1153 12.908C14.9236 13.2843 14.6177 13.5903 14.2413 13.782C13.9891 13.9105 13.7269 13.9581 13.4633 13.9796C13.2137 14 12.9105 14 12.5591 14H3.44096C3.08953 14 2.78636 14 2.53664 13.9796C2.27308 13.9581 2.01094 13.9105 1.75868 13.782C1.38236 13.5903 1.0764 13.2843 0.884651 12.908C0.756125 12.6557 0.708578 12.3936 0.687045 12.13C0.666643 11.8803 0.666653 11.5771 0.666665 11.2257V10.1077C0.666653 9.7562 0.666643 9.453 0.687045 9.20333C0.708578 8.93973 0.756125 8.6776 0.884651 8.42533C0.963471 8.27067 1.06158 8.12787 1.17595 8C1.06158 7.87213 0.963471 7.72933 0.884651 7.57467C0.756125 7.3224 0.708578 7.06027 0.687045 6.79667C0.666643 6.54697 0.666653 6.24379 0.666665 5.89237V4.77431C0.666653 4.42287 0.666643 4.1197 0.687045 3.86998C0.708578 3.60642 0.756125 3.34427 0.884651 3.09202C1.0764 2.71569 1.38236 2.40973 1.75868 2.21799C2.01094 2.08946 2.27308 2.04191 2.53664 2.02038C2.78636 1.99998 3.08954 1.99999 3.44097 2ZM3.44844 7.33333H3.46666H12.5333H12.5515C12.9256 7.33333 13.1689 7.3326 13.3548 7.3174C13.5359 7.3026 13.603 7.27747 13.636 7.26067C13.7615 7.19673 13.8634 7.0948 13.9273 6.96933C13.9441 6.93633 13.9693 6.8692 13.9841 6.68813C13.9995 6.49922 14 6.25104 14 5.86667V4.8C14 4.41563 13.9995 4.16745 13.9841 3.97856C13.9693 3.79745 13.9441 3.73031 13.9273 3.69734C13.8634 3.5719 13.7615 3.46991 13.636 3.406C13.603 3.3892 13.5359 3.36408 13.3548 3.34929C13.1659 3.33385 12.9177 3.33333 12.5333 3.33333H3.46666C3.0823 3.33333 2.83411 3.33385 2.64522 3.34929C2.46411 3.36408 2.39697 3.3892 2.364 3.406C2.23856 3.46991 2.13658 3.5719 2.07266 3.69734C2.05586 3.73031 2.03074 3.79745 2.01595 3.97856C2.00052 4.16745 2 4.41563 2 4.8V5.86667C2 6.25104 2.00052 6.49922 2.01595 6.68813C2.03074 6.8692 2.05586 6.93633 2.07266 6.96933C2.13658 7.0948 2.23856 7.19673 2.364 7.26067C2.39697 7.27747 2.46411 7.3026 2.64522 7.3174C2.83111 7.3326 3.07442 7.33333 3.44844 7.33333ZM3.46666 8.66667C3.0823 8.66667 2.83412 8.6672 2.64522 8.6826C2.46411 8.6974 2.39697 8.72253 2.364 8.73933C2.23856 8.80327 2.13658 8.9052 2.07266 9.03067C2.05586 9.06367 2.03074 9.1308 2.01595 9.31187C2.00052 9.5008 2 9.74893 2 10.1333V11.2C2 11.5844 2.00052 11.8325 2.01595 12.0215C2.03074 12.2025 2.05586 12.2697 2.07266 12.3027C2.13658 12.4281 2.23856 12.5301 2.364 12.594C2.39697 12.6108 2.46411 12.6359 2.64522 12.6507C2.83411 12.6661 3.0823 12.6667 3.46666 12.6667H12.5333C12.9177 12.6667 13.1659 12.6661 13.3548 12.6507C13.5359 12.6359 13.603 12.6108 13.636 12.594C13.7615 12.5301 13.8634 12.4281 13.9273 12.3027C13.9441 12.2697 13.9693 12.2025 13.9841 12.0215C13.9995 11.8325 14 11.5844 14 11.2V10.1333C14 9.74893 13.9995 9.5008 13.9841 9.31187C13.9693 9.1308 13.9441 9.06367 13.9273 9.03067C13.8634 8.9052 13.7615 8.80327 13.636 8.73933C13.603 8.72253 13.5359 8.6974 13.3548 8.6826C13.1659 8.6672 12.9177 8.66667 12.5333 8.66667H3.46666ZM3.33333 5.33333C3.33333 4.59695 3.93028 4 4.66666 4C5.40304 4 6 4.59695 6 5.33333C6 6.06971 5.40304 6.66667 4.66666 6.66667C3.93028 6.66667 3.33333 6.06971 3.33333 5.33333ZM7.33333 5.33333C7.33333 4.96515 7.6318 4.66667 8 4.66667H12C12.3682 4.66667 12.6667 4.96515 12.6667 5.33333C12.6667 5.70153 12.3682 6 12 6H8C7.6318 6 7.33333 5.70153 7.33333 5.33333ZM3.33333 10.6667C3.33333 9.93027 3.93028 9.33333 4.66666 9.33333C5.40304 9.33333 6 9.93027 6 10.6667C6 11.4031 5.40304 12 4.66666 12C3.93028 12 3.33333 11.4031 3.33333 10.6667ZM7.33333 10.6667C7.33333 10.2985 7.6318 10 8 10H12C12.3682 10 12.6667 10.2985 12.6667 10.6667C12.6667 11.0349 12.3682 11.3333 12 11.3333H8C7.6318 11.3333 7.33333 11.0349 7.33333 10.6667Z" fill="currentColor"/>
</svg>
