<svg width="100%" height="100%" viewBox="0 0 16 16" fill="none" xmlns="http://www.w3.org/2000/svg"><g><path d="M15.3336 8.728H12.6664V10.9088H13.6664C14.2184 10.9088 14.6664 11.3968 14.6664 12V14.9088C14.6664 15.512 14.2184 16 13.6664 16H10.3336C9.7816 16 9.3336 15.512 9.3336 14.9088V12C9.3336 11.3976 9.7816 10.9088 10.3336 10.9088H11.3336V8.728H4.6664V10.9096H5.6664C6.2184 10.9096 6.6664 11.3976 6.6664 12.0008V14.9096C6.6664 15.5128 6.2184 16.0008 5.6664 16.0008H2.3336C1.7816 16.0008 1.3336 15.5128 1.3336 14.9096V12C1.3336 11.3976 1.7816 10.9088 2.3336 10.9088H3.3336V8.728H0.6664C0.2984 8.728 0 8.4016 0 8C0 7.5984 0.2984 7.272 0.6664 7.272H7.3336V5.092H6.3336C5.7816 5.092 5.3336 4.604 5.3336 4.0008V1.0912C5.3336 0.488 5.7816 0 6.3336 0H9.6664C10.2184 0 10.6664 0.488 10.6664 1.0912V4C10.6664 4.6024 10.2184 5.0912 9.6664 5.0912H8.6664V7.272H15.3336C15.7016 7.272 16 7.5976 16 7.9992C16 8.4008 15.7016 8.728 15.3336 8.728Z" fill="currentColor"/></g></svg>
