<svg width="100%" height="100%" fill="none" xmlns="http://www.w3.org/2000/svg" viewBox="0 0 16 16"><g><path d="M14.0238 4.17981c.2545.13032.466.31933.6125.54759.1464.22825.2227.48752.2208.75111v4.85609c0 .5393-.3281 1.0367-.8578 1.2987L8.99932 14.48c-.24785.1225-.5261.1867-.80884.1867-.28282 0-.56099-.0642-.80891-.1867l-4.99998-2.8467c-.25913-.1275-.47546-.3153-.62637-.5437-.15089-.2285-.23081-.4892-.23141-.755V5.47784c0-.53935.32815-1.03602.85778-1.29803l4.99998-2.65338c.25523-.12664.54194-.19306.83336-.19306.29143 0 .57806.06642.8333.19306l4.99997 2.65338h-.0244Z" stroke="currentColor" stroke-width="3" stroke-linecap="round" stroke-linejoin="round"/></g></svg>